<?xml version="1.0" encoding="utf-8"?><!DOCTYPE svg PUBLIC "-//W3C//DTD SVG 1.1//EN" "http://www.w3.org/Graphics/SVG/1.1/DTD/svg11.dtd"><svg viewBox="0 0 32 32" xmlns="http://www.w3.org/2000/svg" xmlns:xlink="http://www.w3.org/1999/xlink"><style>:root>svg{display:none}:root>svg:target{display:block}</style><svg viewBox="0 0 32 32" id="angle-left" xmlns="http://www.w3.org/2000/svg"><path d="M12.792 15.233l-.754.754 6.035 6.035.754-.754-5.281-5.281 5.256-5.256-.754-.754-3.013 3.013z" fill="#fff"/></svg><svg viewBox="0 0 32 32" id="check" xmlns="http://www.w3.org/2000/svg"><path d="M16 2.672C8.639 2.672 2.672 8.639 2.672 16S8.64 29.328 16 29.328c7.361 0 13.328-5.967 13.328-13.328S23.361 2.672 16 2.672zm0 25.59C9.239 28.262 3.738 22.761 3.738 16S9.238 3.738 16 3.738c6.761 0 12.262 5.501 12.262 12.262S22.762 28.262 16 28.262z" fill="#ff6363"/><path d="M22.667 11.241l-8.559 8.299-2.998-2.998a.8.8 0 00-1.131 1.131l3.555 3.555a.797.797 0 001.121.009l9.124-8.848a.8.8 0 00-1.113-1.149z" fill="#ff6363"/></svg><svg viewBox="0 0 32 32" id="facebook" xmlns="http://www.w3.org/2000/svg"><path d="M19 6h5V0h-5c-3.86 0-7 3.14-7 7v3H8v6h4v16h6V16h5l1-6h-6V7c0-.542.458-1 1-1z"/></svg><svg viewBox="0 0 32 32" id="facebook2" xmlns="http://www.w3.org/2000/svg"><path d="M19 6h5V0h-5c-3.86 0-7 3.14-7 7v3H8v6h4v16h6V16h5l1-6h-6V7c0-.542.458-1 1-1z"/></svg><svg viewBox="0 0 27 32" id="like2" xmlns="http://www.w3.org/2000/svg"><path d="M27.275 15.638c0-1.288-1.02-2.282-2.374-2.282h-8.536c.545-1.265 1.524-3.919 1.524-6.659 0-3.128-1.569-3.784-2.886-3.784-.816 0-1.996.619-1.996 1.737 0 .472-.075 4.671-2.639 6.822-2.732 2.292-3.509 2.891-5.005 2.891-1.746 0-4.847.038-4.847.038l-.517.007v12.206h5.712c.371 0 1.483.496 2.466.932 1.622.722 3.459 1.541 4.696 1.541l8.25-.003c1.343 0 2.436-1.056 2.436-2.354 0-.529-.189-1.012-.494-1.405a2.35 2.35 0 001.711-2.254c0-.539-.19-1.031-.496-1.429a2.397 2.397 0 001.677-2.277c0-.538-.184-1.031-.485-1.431a2.372 2.372 0 001.801-2.295zm-2.374 1.324h-1.822v1.049h.477c.746 0 1.353.607 1.353 1.353s-.608 1.353-1.353 1.353H22.03v1.049h.394a1.306 1.306 0 010 2.61h-1.443v1.049h.143c.764 0 1.387.586 1.387 1.305 0 .72-.623 1.305-1.387 1.305h-1.34v.003h-6.91c-1.014 0-2.819-.804-4.27-1.45-1.425-.634-2.326-1.023-2.892-1.023H1.049V15.444c.955-.011 3.013-.032 4.315-.032 1.94 0 2.959-.854 5.679-3.136 2.868-2.406 3.014-6.774 3.014-7.626 0-.428.657-.688.947-.688.549 0 1.837 0 1.837 2.735 0 3.456-1.745 6.91-1.762 6.945l-.39.763h6.426c.018.013.03 0 .03 0h3.757c.767 0 1.325.532 1.325 1.233 0 .73-.594 1.324-1.325 1.324z" fill="#029df5"/></svg><svg viewBox="0 0 32 32" id="linkedin2" xmlns="http://www.w3.org/2000/svg"><path d="M12 12h5.535v2.837h.079c.77-1.381 2.655-2.837 5.464-2.837C28.92 12 30 15.637 30 20.367V30h-5.769v-8.54c0-2.037-.042-4.657-3.001-4.657-3.005 0-3.463 2.218-3.463 4.509V30H12V12zM2 12h6v18H2V12zM8 7a3 3 0 11-6 0 3 3 0 016 0z"/></svg><svg viewBox="0 0 32 32" id="pinterest2" xmlns="http://www.w3.org/2000/svg"><path d="M16 0C7.175 0 0 7.175 0 16s7.175 16 16 16 16-7.175 16-16S24.825 0 16 0zm0 29.863c-1.431 0-2.806-.219-4.106-.619.563-.919 1.412-2.431 1.725-3.631.169-.65.863-3.294.863-3.294.45.863 1.775 1.594 3.175 1.594 4.181 0 7.194-3.844 7.194-8.625 0-4.581-3.738-8.006-8.544-8.006-5.981 0-9.156 4.019-9.156 8.387 0 2.031 1.081 4.563 2.813 5.369.262.125.4.069.463-.188.044-.194.281-1.131.387-1.575a.427.427 0 00-.094-.4c-.575-.694-1.031-1.975-1.031-3.162 0-3.056 2.313-6.019 6.256-6.019 3.406 0 5.788 2.319 5.788 5.637 0 3.75-1.894 6.35-4.356 6.35-1.363 0-2.381-1.125-2.05-2.506.394-1.65 1.15-3.425 1.15-4.613 0-1.063-.569-1.95-1.756-1.95-1.394 0-2.506 1.438-2.506 3.369 0 1.225.412 2.056.412 2.056s-1.375 5.806-1.625 6.887c-.281 1.2-.169 2.881-.05 3.975-5.156-2.012-8.813-7.025-8.813-12.9 0-7.656 6.206-13.863 13.862-13.863s13.863 6.206 13.863 13.863c0 7.656-6.206 13.863-13.863 13.863z"/></svg><svg viewBox="0 0 32 32" id="search" xmlns="http://www.w3.org/2000/svg"><path d="M28.591 27.273l-7.263-7.264a10.085 10.085 0 002.339-6.471c0-5.595-4.535-10.129-10.129-10.129-5.594 0-10.129 4.535-10.129 10.129 0 5.594 4.536 10.129 10.129 10.129 2.462 0 4.716-.879 6.471-2.339l7.263 7.264 1.319-1.319zM4.475 13.538c0-4.997 4.065-9.063 9.063-9.063 4.997 0 9.063 4.066 9.063 9.063s-4.066 9.063-9.063 9.063c-4.998 0-9.063-4.066-9.063-9.063z" fill="#fff"/></svg><svg viewBox="0 0 32 32" id="searchB" xmlns="http://www.w3.org/2000/svg"><path d="M28.591 27.273l-7.263-7.264a10.085 10.085 0 002.339-6.471c0-5.595-4.535-10.129-10.129-10.129-5.594 0-10.129 4.535-10.129 10.129 0 5.594 4.536 10.129 10.129 10.129 2.462 0 4.716-.879 6.471-2.339l7.263 7.264 1.319-1.319zM4.475 13.538c0-4.997 4.065-9.063 9.063-9.063 4.997 0 9.063 4.066 9.063 9.063s-4.066 9.063-9.063 9.063c-4.998 0-9.063-4.066-9.063-9.063z" fill="#5474fd"/></svg><svg viewBox="0 0 32 32" id="twitter" xmlns="http://www.w3.org/2000/svg"><path d="M32 7.075a12.941 12.941 0 01-3.769 1.031 6.601 6.601 0 002.887-3.631 13.21 13.21 0 01-4.169 1.594A6.565 6.565 0 0022.155 4a6.563 6.563 0 00-6.563 6.563c0 .512.056 1.012.169 1.494A18.635 18.635 0 012.23 5.195a6.56 6.56 0 00-.887 3.3 6.557 6.557 0 002.919 5.463 6.565 6.565 0 01-2.975-.819v.081a6.565 6.565 0 005.269 6.437 6.574 6.574 0 01-2.968.112 6.588 6.588 0 006.131 4.563 13.17 13.17 0 01-9.725 2.719 18.568 18.568 0 0010.069 2.95c12.075 0 18.681-10.006 18.681-18.681 0-.287-.006-.569-.019-.85A13.216 13.216 0 0032 7.076z"/></svg><svg viewBox="0 0 32 32" id="youtube" xmlns="http://www.w3.org/2000/svg"><path d="M31.681 9.6s-.313-2.206-1.275-3.175C29.187 5.15 27.825 5.144 27.2 5.069c-4.475-.325-11.194-.325-11.194-.325h-.012s-6.719 0-11.194.325c-.625.075-1.987.081-3.206 1.356C.631 7.394.325 9.6.325 9.6s-.319 2.588-.319 5.181v2.425c0 2.587.319 5.181.319 5.181s.313 2.206 1.269 3.175c1.219 1.275 2.819 1.231 3.531 1.369 2.563.244 10.881.319 10.881.319s6.725-.012 11.2-.331c.625-.075 1.988-.081 3.206-1.356.962-.969 1.275-3.175 1.275-3.175s.319-2.587.319-5.181v-2.425c-.006-2.588-.325-5.181-.325-5.181zM12.694 20.15v-8.994l8.644 4.513-8.644 4.481z"/></svg></svg>